<?xml version="1.0" encoding="UTF-8"?>
<svg width="64" height="64" viewBox="0 0 64 64" xmlns="http://www.w3.org/2000/svg">
  <!-- Pozadí -->
  <rect width="64" height="64" rx="8" fill="#2E8B57"/>
  
  <!-- Složka -->
  <path d="M10 20 L25 20 L30 25 L54 25 C56 25 58 27 58 29 L58 47 C58 49 56 51 54 51 L10 51 C8 51 6 49 6 47 L6 24 C6 22 8 20 10 20 Z" fill="#4CAF50"/>
  
  <!-- Složka detail -->
  <path d="M10 20 L25 20 L30 25 L54 25 C56 25 58 27 58 29 L58 32 L6 32 L6 24 C6 22 8 20 10 20 Z" fill="#66BB6A"/>
  
  <!-- FlexiFiles logo - F -->
  <text x="32" y="42" text-anchor="middle" fill="white" font-family="Arial, sans-serif" font-size="20" font-weight="bold">F</text>
  
  <!-- Malé soubory ikony -->
  <rect x="14" y="38" width="8" height="6" rx="1" fill="white" opacity="0.8"/>
  <rect x="46" y="38" width="8" height="6" rx="1" fill="white" opacity="0.8"/>
</svg>
